<svg xmlns="http://www.w3.org/2000/svg" width="92" height="92" viewBox="0 0 92 92">
  <g id="Group_150035" data-name="Group 150035" transform="translate(-98 -979)">
    <rect id="Rectangle_17947" data-name="Rectangle 17947" width="92" height="92" transform="translate(98 979)" fill="none"/>
    <g id="Group_149946" data-name="Group 149946" transform="translate(29.482 991.996)">
      <path id="Path_17263" data-name="Path 17263" d="M135.28,5.223A5.283,5.283,0,0,0,129.95,0H99.086a5.283,5.283,0,0,0-5.33,5.223V40.268a1.307,1.307,0,0,0,2.611,0V12.509h36.3v40.8h-36.3V50.616a1.307,1.307,0,0,0-2.611,0V60.785a5.283,5.283,0,0,0,5.33,5.223H129.95a5.283,5.283,0,0,0,5.33-5.223ZM96.367,9.9V5.223a2.67,2.67,0,0,1,2.719-2.611H129.95a2.67,2.67,0,0,1,2.719,2.611V9.9Zm21.371,49.759a3.74,3.74,0,1,1-3.74-3.74A3.744,3.744,0,0,1,117.739,59.656ZM96.367,60.785V55.917h12.5a6.392,6.392,0,0,0,0,7.479H99.086A2.67,2.67,0,0,1,96.367,60.785Zm36.3,0A2.67,2.67,0,0,1,129.95,63.4H119.128a6.391,6.391,0,0,0,0-7.479h13.541Z" transform="translate(0)" fill="#fff"/>
      <path id="Path_17264" data-name="Path 17264" d="M208.28,37.9H196.923a1.307,1.307,0,0,0,0,2.611H208.28A1.307,1.307,0,0,0,208.28,37.9Z" transform="translate(-88.602 -32.953)" fill="#fff"/>
      <path id="Path_17265" data-name="Path 17265" d="M93.883,340.018a1.3,1.3,0,1,0,.706-1.705A1.318,1.318,0,0,0,93.883,340.018Z" transform="translate(-0.027 -294.055)" fill="#fff"/>
      <path id="Path_17266" data-name="Path 17266" d="M211.883,202.268a1.3,1.3,0,0,0,.537-.116l11.745-5.3a1.322,1.322,0,0,0,.09-2.335l-11.745-6.442a1.324,1.324,0,0,0-1.934,1.145v11.745A1.333,1.333,0,0,0,211.883,202.268Z" transform="translate(-101.568 -163.382)" fill="#e7292b"/>
    </g>
  </g>
</svg>
